<mxfile host="app.diagrams.net" modified="2023-03-12T09:37:25.149Z" agent="5.0 (Macintosh; Intel Mac OS X 10_15_7) AppleWebKit/537.36 (KHTML, like Gecko) Chrome/110.0.0.0 Safari/537.36 Edg/110.0.1587.63" etag="fIXK13ARjsOebVKaPWdE" version="21.0.6" type="github">
  <diagram name="第 1 页" id="EXrj8rtqfjivyeg-g0pU">
    <mxGraphModel dx="1434" dy="828" grid="1" gridSize="10" guides="1" tooltips="1" connect="1" arrows="1" fold="1" page="1" pageScale="1" pageWidth="827" pageHeight="1169" math="0" shadow="0">
      <root>
        <mxCell id="0" />
        <mxCell id="1" parent="0" />
        <mxCell id="RXq6DhyDcQf7bVximnme-6" style="edgeStyle=orthogonalEdgeStyle;rounded=0;orthogonalLoop=1;jettySize=auto;html=1;exitX=1;exitY=0.5;exitDx=0;exitDy=0;entryX=0;entryY=0.5;entryDx=0;entryDy=0;fontSize=16;fillColor=#dae8fc;strokeColor=#6c8ebf;" edge="1" parent="1" source="RXq6DhyDcQf7bVximnme-1" target="RXq6DhyDcQf7bVximnme-3">
          <mxGeometry relative="1" as="geometry" />
        </mxCell>
        <mxCell id="RXq6DhyDcQf7bVximnme-1" value="Input" style="ellipse;whiteSpace=wrap;html=1;aspect=fixed;fontSize=16;fillColor=#dae8fc;strokeColor=#6c8ebf;" vertex="1" parent="1">
          <mxGeometry x="50" y="260" width="80" height="80" as="geometry" />
        </mxCell>
        <mxCell id="RXq6DhyDcQf7bVximnme-2" value="Output" style="ellipse;whiteSpace=wrap;html=1;aspect=fixed;fontSize=16;fillColor=#dae8fc;strokeColor=#6c8ebf;" vertex="1" parent="1">
          <mxGeometry x="600" y="260" width="80" height="80" as="geometry" />
        </mxCell>
        <mxCell id="RXq6DhyDcQf7bVximnme-7" style="edgeStyle=orthogonalEdgeStyle;rounded=0;orthogonalLoop=1;jettySize=auto;html=1;exitX=1;exitY=0.5;exitDx=0;exitDy=0;entryX=0;entryY=0.5;entryDx=0;entryDy=0;fontSize=16;fillColor=#dae8fc;strokeColor=#6c8ebf;" edge="1" parent="1" source="RXq6DhyDcQf7bVximnme-3" target="RXq6DhyDcQf7bVximnme-4">
          <mxGeometry relative="1" as="geometry" />
        </mxCell>
        <mxCell id="RXq6DhyDcQf7bVximnme-3" value="Plugin 1" style="rounded=0;whiteSpace=wrap;html=1;fontSize=16;fillColor=#dae8fc;strokeColor=#6c8ebf;" vertex="1" parent="1">
          <mxGeometry x="180" y="270" width="90" height="60" as="geometry" />
        </mxCell>
        <mxCell id="RXq6DhyDcQf7bVximnme-8" style="edgeStyle=orthogonalEdgeStyle;rounded=0;orthogonalLoop=1;jettySize=auto;html=1;exitX=1;exitY=0.5;exitDx=0;exitDy=0;entryX=0;entryY=0.5;entryDx=0;entryDy=0;fontSize=16;fillColor=#dae8fc;strokeColor=#6c8ebf;" edge="1" parent="1" source="RXq6DhyDcQf7bVximnme-4" target="RXq6DhyDcQf7bVximnme-5">
          <mxGeometry relative="1" as="geometry" />
        </mxCell>
        <mxCell id="RXq6DhyDcQf7bVximnme-10" value="..." style="edgeLabel;html=1;align=center;verticalAlign=middle;resizable=0;points=[];" vertex="1" connectable="0" parent="RXq6DhyDcQf7bVximnme-8">
          <mxGeometry x="-0.1613" y="2" relative="1" as="geometry">
            <mxPoint x="1" as="offset" />
          </mxGeometry>
        </mxCell>
        <mxCell id="RXq6DhyDcQf7bVximnme-4" value="Plugin 2" style="rounded=0;whiteSpace=wrap;html=1;fontSize=16;fillColor=#dae8fc;strokeColor=#6c8ebf;" vertex="1" parent="1">
          <mxGeometry x="323.5" y="270" width="90" height="60" as="geometry" />
        </mxCell>
        <mxCell id="RXq6DhyDcQf7bVximnme-9" style="edgeStyle=orthogonalEdgeStyle;rounded=0;orthogonalLoop=1;jettySize=auto;html=1;exitX=1;exitY=0.5;exitDx=0;exitDy=0;entryX=0;entryY=0.5;entryDx=0;entryDy=0;fontSize=16;fillColor=#dae8fc;strokeColor=#6c8ebf;" edge="1" parent="1" source="RXq6DhyDcQf7bVximnme-5" target="RXq6DhyDcQf7bVximnme-2">
          <mxGeometry relative="1" as="geometry" />
        </mxCell>
        <mxCell id="RXq6DhyDcQf7bVximnme-5" value="Plugin n" style="rounded=0;whiteSpace=wrap;html=1;fontSize=16;fillColor=#dae8fc;strokeColor=#6c8ebf;" vertex="1" parent="1">
          <mxGeometry x="460" y="270" width="90" height="60" as="geometry" />
        </mxCell>
      </root>
    </mxGraphModel>
  </diagram>
</mxfile>
